<svg xmlns="http://www.w3.org/2000/svg" viewBox="0 0 1200 800" font-family="Inter,'Segoe UI','Microsoft YaHei',sans-serif">
  <defs>
    <linearGradient id="bg" x1="0" y1="0" x2="0" y2="1"><stop offset="0%" stop-color="#F0F4FF"/><stop offset="100%" stop-color="#E8EDFB"/></linearGradient>
    <linearGradient id="primary" x1="0" y1="0" x2="1" y2="1"><stop offset="0%" stop-color="#1A56DB"/><stop offset="100%" stop-color="#7C3AED"/></linearGradient>
    <filter id="shadow"><feDropShadow dx="0" dy="2" stdDeviation="6" flood-opacity="0.08"/></filter>
    <filter id="shadow-sm"><feDropShadow dx="0" dy="1" stdDeviation="3" flood-opacity="0.06"/></filter>
  </defs>

  <rect width="1200" height="800" fill="url(#bg)"/>

  <!-- Sidebar -->
  <rect x="0" y="0" width="240" height="800" fill="#FFFFFF" filter="url(#shadow)"/>
  <rect x="20" y="24" width="40" height="40" rx="10" fill="url(#primary)"/>
  <path d="M30 52 L36 52 L36 44 L42 44 L42 36 L48 36" stroke="#fff" stroke-width="3" stroke-linecap="round" fill="none" opacity="0.9"/>
  <circle cx="49" cy="31" r="3.5" fill="#fff"/>
  <text x="70" y="48" font-size="18" font-weight="700" fill="#141B2B">跃途</text>

  <text x="56" y="128" font-size="13" fill="#6B7280">🏠 工作台</text>
  <text x="56" y="162" font-size="13" fill="#6B7280">📄 简历中心</text>
  <text x="56" y="196" font-size="13" fill="#6B7280">🎙️ 模拟面试</text>
  <text x="56" y="230" font-size="13" fill="#6B7280">💼 职位匹配</text>
  <text x="56" y="264" font-size="13" fill="#6B7280">📅 求职规划</text>
  <rect x="16" y="278" width="208" height="44" rx="10" fill="#EBF0FF"/>
  <rect x="28" y="292" width="18" height="18" rx="4" fill="#1A56DB"/>
  <text x="56" y="306" font-size="14" font-weight="600" fill="#1A56DB">🏢 公司画像</text>

  <!-- Main Content -->
  <rect x="260" y="20" width="920" height="760" rx="16" fill="#FFFFFF" filter="url(#shadow)"/>

  <!-- Header -->
  <text x="296" y="64" font-size="22" font-weight="700" fill="#141B2B">公司画像</text>
  <text x="296" y="86" font-size="13" fill="#9CA3AF">全方位了解目标公司，做出明智决策</text>

  <!-- Compare button -->
  <rect x="1020" y="42" width="136" height="36" rx="8" fill="#F3F4F6" stroke="#E5E7EB"/>
  <text x="1036" y="65" font-size="12" fill="#6B7280">⚖️ 对比公司</text>

  <!-- Company Card 1 - Tencent -->
  <rect x="296" y="106" width="420" height="320" rx="14" fill="#FFFFFF" stroke="#E5E7EB" stroke-width="1" filter="url(#shadow)"/>
  <!-- Company header -->
  <rect x="296" y="106" width="420" height="80" rx="14" fill="#F0FDF4"/>
  <rect x="296" y="152" width="420" height="34" fill="#F0FDF4"/>
  <circle cx="340" cy="146" r="28" fill="#16A34A"/>
  <text x="328" y="152" font-size="18" fill="#fff" font-weight="700">腾</text>
  <text x="382" y="138" font-size="16" font-weight="700" fill="#141B2B">腾讯科技</text>
  <text x="382" y="158" font-size="11" fill="#6B7280">互联网 · 5000+人 · 上市 · 深圳</text>
  <rect x="620" y="120" width="76" height="24" rx="4" fill="#D1FAE5"/>
  <text x="632" y="137" font-size="10" font-weight="600" fill="#16A34A">已收藏 ❤️</text>

  <!-- Difficulty -->
  <rect x="316" y="200" width="80" height="24" rx="4" fill="#FEF3C7"/>
  <text x="326" y="217" font-size="10" fill="#D9770B">难度: 高</text>

  <!-- Tech Stack -->
  <text x="316" y="242" font-size="11" fill="#9CA3AF">技术栈</text>
  <rect x="316" y="250" width="36" height="22" rx="4" fill="#EBF0FF"/>
  <text x="324" y="265" font-size="10" fill="#1A56DB">C++</text>
  <rect x="360" y="250" width="30" height="22" rx="4" fill="#EBF0FF"/>
  <text x="366" y="265" font-size="10" fill="#1A56DB">Go</text>
  <rect x="398" y="250" width="56" height="22" rx="4" fill="#EBF0FF"/>
  <text x="406" y="265" font-size="10" fill="#1A56DB">微服务</text>

  <!-- Culture Tags -->
  <text x="316" y="290" font-size="11" fill="#9CA3AF">企业文化</text>
  <rect x="316" y="298" width="56" height="22" rx="4" fill="#F0FDF4"/>
  <text x="324" y="313" font-size="10" fill="#16A34A">扁平化</text>
  <rect x="380" y="298" width="64" height="22" rx="4" fill="#FEF3C7"/>
  <text x="388" y="313" font-size="10" fill="#D9770B">偶尔加班</text>
  <rect x="452" y="298" width="64" height="22" rx="4" fill="#F0FDF4"/>
  <text x="460" y="313" font-size="10" fill="#16A34A">免费三餐</text>

  <!-- Salary preview -->
  <line x1="316" y1="336" x2="696" y2="336" stroke="#F3F4F6" stroke-width="1"/>
  <text x="316" y="358" font-size="11" fill="#9CA3AF">后端开发薪资</text>
  <text x="316" y="382" font-size="20" font-weight="700" fill="#1A56DB">25-50K</text>
  <text x="430" y="382" font-size="12" fill="#9CA3AF">· 均值 37.5K · 14薪</text>
  <text x="316" y="404" font-size="10" fill="#9CA3AF">数据来源: 脉脉 · 2026年 · 120份样本</text>

  <!-- Company Card 2 - ByteDance -->
  <rect x="740" y="106" width="420" height="320" rx="14" fill="#FFFFFF" stroke="#E5E7EB" stroke-width="1" filter="url(#shadow)"/>
  <rect x="740" y="106" width="420" height="80" rx="14" fill="#FEF2F2"/>
  <rect x="740" y="152" width="420" height="34" fill="#FEF2F2"/>
  <circle cx="784" cy="146" r="28" fill="#EF4444"/>
  <text x="772" y="152" font-size="18" fill="#fff" font-weight="700">字</text>
  <text x="826" y="138" font-size="16" font-weight="700" fill="#141B2B">字节跳动</text>
  <text x="826" y="158" font-size="11" fill="#6B7280">互联网 · 5000+人 · 上市 · 深圳</text>
  <rect x="1064" y="120" width="76" height="24" rx="4" fill="#E5E7EB"/>
  <text x="1080" y="137" font-size="10" font-weight="600" fill="#6B7280">收藏</text>

  <rect x="760" y="200" width="100" height="24" rx="4" fill="#FEE2E2"/>
  <text x="770" y="217" font-size="10" fill="#DC2626">难度: 极高</text>

  <text x="760" y="242" font-size="11" fill="#9CA3AF">技术栈</text>
  <rect x="760" y="250" width="30" height="22" rx="4" fill="#EBF0FF"/>
  <text x="766" y="265" font-size="10" fill="#1A56DB">Go</text>
  <rect x="798" y="250" width="48" height="22" rx="4" fill="#EBF0FF"/>
  <text x="806" y="265" font-size="10" fill="#1A56DB">Python</text>
  <rect x="854" y="250" width="56" height="22" rx="4" fill="#EBF0FF"/>
  <text x="862" y="265" font-size="10" fill="#1A56DB">大数据</text>

  <text x="760" y="290" font-size="11" fill="#9CA3AF">企业文化</text>
  <rect x="760" y="298" width="48" height="22" rx="4" fill="#FEF3C7"/>
  <text x="768" y="313" font-size="10" fill="#D9770B">大小周</text>
  <rect x="816" y="298" width="40" height="22" rx="4" fill="#F0FDF4"/>
  <text x="824" y="313" font-size="10" fill="#16A34A">扁平</text>
  <rect x="864" y="298" width="64" height="22" rx="4" fill="#F0FDF4"/>
  <text x="872" y="313" font-size="10" fill="#16A34A">弹性工作</text>

  <line x1="760" y1="336" x2="1140" y2="336" stroke="#F3F4F6" stroke-width="1"/>
  <text x="760" y="358" font-size="11" fill="#9CA3AF">后端开发薪资</text>
  <text x="760" y="382" font-size="20" font-weight="700" fill="#1A56DB">30-55K</text>
  <text x="874" y="382" font-size="12" fill="#9CA3AF">· 均值 42.5K</text>
  <text x="760" y="404" font-size="10" fill="#9CA3AF">数据来源: 脉脉 · 2026年 · 120份样本</text>

  <!-- Interview Reviews Section -->
  <rect x="296" y="450" width="864" height="320" rx="14" fill="#F9FAFB" stroke="#E5E7EB" stroke-width="1"/>
  <text x="326" y="484" font-size="16" font-weight="600" fill="#141B2B">💬 面经聚合 · 腾讯科技</text>
  <text x="326" y="504" font-size="12" fill="#9CA3AF">来自牛客、脉脉等平台的真实面经</text>

  <!-- Review 1 -->
  <rect x="326" y="520" width="804" height="100" rx="10" fill="#FFFFFF" stroke="#E5E7EB" stroke-width="1"/>
  <rect x="346" y="536" width="60" height="20" rx="4" fill="#DBEAFE"/>
  <text x="352" y="551" font-size="9" font-weight="600" fill="#2563EB">后端开发</text>
  <rect x="414" y="536" width="40" height="20" rx="4" fill="#FEF3C7"/>
  <text x="420" y="551" font-size="9" fill="#D9770B">3轮</text>
  <rect x="462" y="536" width="60" height="20" rx="4" fill="#FEF3C7"/>
  <text x="470" y="551" font-size="9" fill="#D9770B">难度: 4/5</text>

  <text x="346" y="580" font-size="12" fill="#141B2B">一面问了算法题和项目经验，二面系统设计，三面 HR。整体偏难但公平。</text>
  <text x="346" y="600" font-size="11" fill="#6B7280">高频问题: MySQL 索引原理 · 秒杀系统设计 · Redis 持久化</text>
  <rect x="1010" y="536" width="60" height="20" rx="4" fill="#D1FAE5"/>
  <text x="1018" y="551" font-size="9" font-weight="600" fill="#16A34A">已拿 Offer</text>
  <text x="1010" y="600" font-size="10" fill="#9CA3AF">来源: 牛客</text>

  <!-- Review 2 -->
  <rect x="326" y="630" width="804" height="100" rx="10" fill="#FFFFFF" stroke="#E5E7EB" stroke-width="1"/>
  <rect x="346" y="646" width="60" height="20" rx="4" fill="#DBEAFE"/>
  <text x="352" y="661" font-size="9" font-weight="600" fill="#2563EB">Go 开发</text>
  <rect x="414" y="646" width="40" height="20" rx="4" fill="#FEF3C7"/>
  <text x="420" y="661" font-size="9" fill="#D9770B">4轮</text>
  <rect x="462" y="646" width="60" height="20" rx="4" fill="#FEE2E2"/>
  <text x="470" y="661" font-size="9" fill="#DC2626">难度: 5/5</text>

  <text x="346" y="690" font-size="12" fill="#141B2B">技术面考察很深，系统设计环节要求画架构图并讲解权衡取舍。</text>
  <text x="346" y="710" font-size="11" fill="#6B7280">高频问题: 分布式一致性 · 微服务拆分 · 性能调优实战</text>
  <text x="1010" y="710" font-size="10" fill="#9CA3AF">来源: 脉脉</text>

  <!-- User avatar -->
  <circle cx="1140" cy="58" r="16" fill="#E0E7FF"/>
  <text x="1132" y="63" font-size="12" fill="#1A56DB" font-weight="600">李</text>
</svg>
