<svg xmlns="http://www.w3.org/2000/svg" viewBox="0 0 1200 800" font-family="Inter,'Segoe UI','Microsoft YaHei',sans-serif">
  <defs>
    <linearGradient id="bg" x1="0" y1="0" x2="0" y2="1"><stop offset="0%" stop-color="#F0F4FF"/><stop offset="100%" stop-color="#E8EDFB"/></linearGradient>
    <linearGradient id="primary" x1="0" y1="0" x2="1" y2="1"><stop offset="0%" stop-color="#1A56DB"/><stop offset="100%" stop-color="#7C3AED"/></linearGradient>
    <filter id="shadow"><feDropShadow dx="0" dy="2" stdDeviation="6" flood-opacity="0.08"/></filter>
    <filter id="shadow-sm"><feDropShadow dx="0" dy="1" stdDeviation="3" flood-opacity="0.06"/></filter>
  </defs>

  <!-- Background -->
  <rect width="1200" height="800" fill="url(#bg)"/>

  <!-- Sidebar -->
  <rect x="0" y="0" width="240" height="800" fill="#FFFFFF" filter="url(#shadow)"/>
  <!-- Logo -->
  <rect x="20" y="24" width="40" height="40" rx="10" fill="url(#primary)"/>
  <path d="M30 52 L36 52 L36 44 L42 44 L42 36 L48 36" stroke="#fff" stroke-width="3" stroke-linecap="round" fill="none" opacity="0.9"/>
  <circle cx="49" cy="31" r="3.5" fill="#fff"/>
  <text x="70" y="48" font-size="18" font-weight="700" fill="#141B2B">跃途</text>

  <!-- Nav items -->
  <rect x="16" y="100" width="208" height="44" rx="10" fill="#EBF0FF"/>
  <rect x="28" y="114" width="18" height="18" rx="4" fill="#1A56DB"/>
  <text x="56" y="128" font-size="14" font-weight="600" fill="#1A56DB">工作台</text>

  <text x="56" y="162" font-size="13" fill="#6B7280">📄 简历中心</text>
  <text x="56" y="196" font-size="13" fill="#6B7280">🎙️ 模拟面试</text>
  <text x="56" y="230" font-size="13" fill="#6B7280">💼 职位匹配</text>
  <text x="56" y="264" font-size="13" fill="#6B7280">📅 求职规划</text>
  <text x="56" y="298" font-size="13" fill="#6B7280">🏢 公司画像</text>
  <text x="56" y="332" font-size="13" fill="#6B7280">📚 求职准备</text>
  <text x="56" y="366" font-size="13" fill="#6B7280">🏠 租房选址</text>

  <!-- Main Content Area -->
  <rect x="260" y="20" width="920" height="760" rx="16" fill="#FFFFFF" filter="url(#shadow)"/>

  <!-- Header -->
  <text x="296" y="64" font-size="22" font-weight="700" fill="#141B2B">工作台</text>
  <text x="296" y="86" font-size="13" fill="#9CA3AF">欢迎回来，李跃 👋</text>

  <!-- Theme Toggle -->
  <rect x="1060" y="40" width="96" height="36" rx="18" fill="#F3F4F6"/>
  <circle cx="1080" cy="58" r="12" fill="#1A56DB"/>
  <text x="1072" y="62" font-size="8" fill="#fff" font-weight="600">Leap</text>
  <text x="1098" y="62" font-size="9" fill="#9CA3AF">Flux</text>

  <!-- Stats Cards Row -->
  <rect x="296" y="110" width="200" height="110" rx="12" fill="#FFFFFF" stroke="#E5E7EB" stroke-width="1" filter="url(#shadow-sm)"/>
  <text x="316" y="140" font-size="12" fill="#9CA3AF">简历评分</text>
  <text x="316" y="178" font-size="36" font-weight="700" fill="#1A56DB">85</text>
  <text x="360" y="178" font-size="14" fill="#9CA3AF">/100</text>
  <rect x="316" y="192" width="140" height="6" rx="3" fill="#E5E7EB"/>
  <rect x="316" y="192" width="119" height="6" rx="3" fill="#1A56DB"/>

  <rect x="516" y="110" width="200" height="110" rx="12" fill="#FFFFFF" stroke="#E5E7EB" stroke-width="1" filter="url(#shadow-sm)"/>
  <text x="536" y="140" font-size="12" fill="#9CA3AF">投递中</text>
  <text x="536" y="178" font-size="36" font-weight="700" fill="#10B981">4</text>
  <text x="570" y="178" font-size="14" fill="#9CA3AF">份</text>
  <text x="536" y="204" font-size="11" fill="#10B981">↑ 1 本周新增</text>

  <rect x="736" y="110" width="200" height="110" rx="12" fill="#FFFFFF" stroke="#E5E7EB" stroke-width="1" filter="url(#shadow-sm)"/>
  <text x="756" y="140" font-size="12" fill="#9CA3AF">面试邀请</text>
  <text x="756" y="178" font-size="36" font-weight="700" fill="#F59E0B">2</text>
  <text x="790" y="178" font-size="14" fill="#9CA3AF">家</text>
  <text x="756" y="204" font-size="11" fill="#F59E0B">🎯 腾讯 · 字节</text>

  <rect x="956" y="110" width="200" height="110" rx="12" fill="#FFFFFF" stroke="#E5E7EB" stroke-width="1" filter="url(#shadow-sm)"/>
  <text x="976" y="140" font-size="12" fill="#9CA3AF">规划进度</text>
  <text x="976" y="178" font-size="36" font-weight="700" fill="#7C3AED">60</text>
  <text x="1026" y="178" font-size="14" fill="#9CA3AF">%</text>
  <rect x="976" y="192" width="140" height="6" rx="3" fill="#E5E7EB"/>
  <rect x="976" y="192" width="84" height="6" rx="3" fill="#7C3AED"/>

  <!-- Radar Chart Area -->
  <rect x="296" y="240" width="430" height="280" rx="12" fill="#FFFFFF" stroke="#E5E7EB" stroke-width="1" filter="url(#shadow-sm)"/>
  <text x="316" y="270" font-size="14" font-weight="600" fill="#141B2B">能力画像</text>
  <!-- Radar -->
  <g transform="translate(511,400)">
    <polygon points="0,-80 76,-25 47,65 -47,65 -76,-25" fill="none" stroke="#E5E7EB" stroke-width="1"/>
    <polygon points="0,-60 57,-19 35,49 -35,49 -57,-19" fill="none" stroke="#E5E7EB" stroke-width="1"/>
    <polygon points="0,-40 38,-12 24,32 -24,32 -38,-12" fill="none" stroke="#E5E7EB" stroke-width="1"/>
    <polygon points="0,-70 66,-22 41,56 -20,45 -60,-20" fill="rgba(26,86,219,0.15)" stroke="#1A56DB" stroke-width="2"/>
    <circle cx="0" cy="-70" r="4" fill="#1A56DB"/>
    <circle cx="66" cy="-22" r="4" fill="#1A56DB"/>
    <circle cx="41" cy="56" r="4" fill="#1A56DB"/>
    <circle cx="-20" cy="45" r="4" fill="#1A56DB"/>
    <circle cx="-60" cy="-20" r="4" fill="#1A56DB"/>
    <text x="0" y="-90" text-anchor="middle" font-size="11" fill="#6B7280">技术</text>
    <text x="88" y="-22" font-size="11" fill="#6B7280">沟通</text>
    <text x="55" y="80" font-size="11" fill="#6B7280">项目</text>
    <text x="-55" y="80" font-size="11" fill="#6B7280">学习</text>
    <text x="-88" y="-22" font-size="11" fill="#6B7280">领导力</text>
  </g>

  <!-- Task List -->
  <rect x="746" y="240" width="410" height="280" rx="12" fill="#FFFFFF" stroke="#E5E7EB" stroke-width="1" filter="url(#shadow-sm)"/>
  <text x="766" y="270" font-size="14" font-weight="600" fill="#141B2B">今日任务</text>

  <rect x="766" y="288" width="16" height="16" rx="4" fill="#E5E7EB"/>
  <text x="792" y="301" font-size="13" fill="#6B7280">投递 3 份简历</text>
  <text x="1070" y="301" font-size="11" fill="#9CA3AF">投递</text>

  <rect x="766" y="318" width="16" height="16" rx="4" fill="#E5E7EB"/>
  <text x="792" y="331" font-size="13" fill="#6B7280">完成 1 次模拟面试</text>
  <text x="1058" y="331" font-size="11" fill="#9CA3AF">面试</text>

  <rect x="766" y="348" width="16" height="16" rx="4" fill="#10B981"/>
  <path d="M770 356 L773 359 L778 352" stroke="#fff" stroke-width="1.5" fill="none"/>
  <text x="792" y="361" font-size="13" fill="#9CA3AF" text-decoration="line-through">学习系统设计 2 小时</text>

  <line x1="766" y1="380" x2="1136" y2="380" stroke="#F3F4F6" stroke-width="1"/>
  <text x="766" y="405" font-size="12" fill="#9CA3AF">推荐职位</text>

  <rect x="766" y="418" width="370" height="44" rx="8" fill="#F9FAFB"/>
  <text x="782" y="438" font-size="12" font-weight="500" fill="#141B2B">后端开发工程师 · 腾讯科技</text>
  <text x="782" y="452" font-size="10" fill="#9CA3AF">25-50K · 深圳 · 匹配度 92%</text>
  <text x="1070" y="442" font-size="10" fill="#1A56DB" font-weight="600">高匹配</text>

  <rect x="766" y="470" width="370" height="44" rx="8" fill="#F9FAFB"/>
  <text x="782" y="490" font-size="12" font-weight="500" fill="#141B2B">Go 高级开发 · 字节跳动</text>
  <text x="782" y="504" font-size="10" fill="#9CA3AF">30-55K · 深圳 · 匹配度 78%</text>
  <text x="1070" y="494" font-size="10" fill="#F59E0B" font-weight="600">中匹配</text>

  <!-- Bottom Cards -->
  <rect x="296" y="540" width="430" height="220" rx="12" fill="#FFFFFF" stroke="#E5E7EB" stroke-width="1" filter="url(#shadow-sm)"/>
  <text x="316" y="570" font-size="14" font-weight="600" fill="#141B2B">投递追踪</text>
  <!-- Kanban mini -->
  <g transform="translate(316,585)">
    <rect width="80" height="130" rx="6" fill="#F0FDF4"/>
    <text x="40" y="20" text-anchor="middle" font-size="10" font-weight="600" fill="#16A34A">已投递</text>
    <rect x="6" y="30" width="68" height="36" rx="4" fill="#fff" stroke="#D1FAE5"/>
    <text x="12" y="48" font-size="9" fill="#141B2B">字节跳动</text>
    <text x="12" y="60" font-size="8" fill="#9CA3AF">Go 高级开发</text>

    <rect x="96" width="80" height="130" rx="6" fill="#FEF3C7"/>
    <text x="136" y="20" text-anchor="middle" font-size="10" font-weight="600" fill="#D97706">初筛中</text>
    <rect x="102" y="30" width="68" height="36" rx="4" fill="#fff" stroke="#FDE68A"/>
    <text x="108" y="48" font-size="9" fill="#141B2B">美团</text>
    <text x="108" y="60" font-size="8" fill="#9CA3AF">Java 工程师</text>

    <rect x="192" width="80" height="130" rx="6" fill="#DBEAFE"/>
    <text x="232" y="20" text-anchor="middle" font-size="10" font-weight="600" fill="#2563EB">面试中</text>
    <rect x="198" y="30" width="68" height="36" rx="4" fill="#fff" stroke="#BFDBFE"/>
    <text x="204" y="48" font-size="9" fill="#141B2B">腾讯科技</text>
    <text x="204" y="60" font-size="8" fill="#9CA3AF">后端开发</text>

    <rect x="288" width="80" height="130" rx="6" fill="#F3F4F6"/>
    <text x="328" y="20" text-anchor="middle" font-size="10" font-weight="600" fill="#6B7280">已收藏</text>
    <rect x="294" y="30" width="68" height="36" rx="4" fill="#fff" stroke="#E5E7EB"/>
    <text x="300" y="48" font-size="9" fill="#141B2B">招商银行</text>
    <text x="300" y="60" font-size="8" fill="#9CA3AF">金融科技</text>
  </g>

  <!-- Quote -->
  <rect x="746" y="540" width="410" height="220" rx="12" fill="url(#primary)" opacity="0.9"/>
  <text x="776" y="590" font-size="14" fill="rgba(255,255,255,0.7)">每日一句</text>
  <text x="776" y="625" font-size="18" font-weight="600" fill="#FFFFFF">"不止帮你找到工作，</text>
  <text x="776" y="655" font-size="18" font-weight="600" fill="#FFFFFF"> 更帮你找到「对」的工作。"</text>
  <text x="776" y="695" font-size="12" fill="rgba(255,255,255,0.6)">—— 跃途 LeapPath</text>
  <text x="776" y="720" font-size="11" fill="rgba(255,255,255,0.5)">距离目标入职日还有 70 天</text>

  <!-- User avatar -->
  <circle cx="1140" cy="58" r="16" fill="#E0E7FF"/>
  <text x="1132" y="63" font-size="12" fill="#1A56DB" font-weight="600">李</text>
</svg>
