<svg xmlns="http://www.w3.org/2000/svg" viewBox="0 0 1200 800" font-family="Inter,'Segoe UI','Microsoft YaHei',sans-serif">
  <defs>
    <linearGradient id="bg" x1="0" y1="0" x2="0" y2="1"><stop offset="0%" stop-color="#F0F4FF"/><stop offset="100%" stop-color="#E8EDFB"/></linearGradient>
    <linearGradient id="primary" x1="0" y1="0" x2="1" y2="1"><stop offset="0%" stop-color="#1A56DB"/><stop offset="100%" stop-color="#7C3AED"/></linearGradient>
    <filter id="shadow"><feDropShadow dx="0" dy="2" stdDeviation="6" flood-opacity="0.08"/></filter>
    <filter id="shadow-sm"><feDropShadow dx="0" dy="1" stdDeviation="3" flood-opacity="0.06"/></filter>
  </defs>

  <rect width="1200" height="800" fill="url(#bg)"/>

  <!-- Sidebar -->
  <rect x="0" y="0" width="240" height="800" fill="#FFFFFF" filter="url(#shadow)"/>
  <rect x="20" y="24" width="40" height="40" rx="10" fill="url(#primary)"/>
  <path d="M30 52 L36 52 L36 44 L42 44 L42 36 L48 36" stroke="#fff" stroke-width="3" stroke-linecap="round" fill="none" opacity="0.9"/>
  <circle cx="49" cy="31" r="3.5" fill="#fff"/>
  <text x="70" y="48" font-size="18" font-weight="700" fill="#141B2B">跃途</text>

  <text x="56" y="128" font-size="13" fill="#6B7280">🏠 工作台</text>
  <text x="56" y="162" font-size="13" fill="#6B7280">📄 简历中心</text>
  <text x="56" y="196" font-size="13" fill="#6B7280">🎙️ 模拟面试</text>
  <rect x="16" y="210" width="208" height="44" rx="10" fill="#EBF0FF"/>
  <rect x="28" y="224" width="18" height="18" rx="4" fill="#1A56DB"/>
  <text x="56" y="238" font-size="14" font-weight="600" fill="#1A56DB">💼 职位匹配</text>
  <text x="56" y="274" font-size="13" fill="#6B7280">📅 求职规划</text>
  <text x="56" y="308" font-size="13" fill="#6B7280">🏢 公司画像</text>

  <!-- Main Content -->
  <rect x="260" y="20" width="920" height="760" rx="16" fill="#FFFFFF" filter="url(#shadow)"/>

  <!-- Header -->
  <text x="296" y="64" font-size="22" font-weight="700" fill="#141B2B">职位匹配</text>
  <text x="296" y="86" font-size="13" fill="#9CA3AF">为你智能匹配最合适的职位机会</text>

  <!-- Search Bar -->
  <rect x="296" y="100" width="660" height="40" rx="10" fill="#F9FAFB" stroke="#E5E7EB"/>
  <text x="316" y="125" font-size="13" fill="#9CA3AF">🔍 搜索职位、公司或关键词...</text>
  <rect x="970" y="100" width="80" height="40" rx="10" fill="url(#primary)"/>
  <text x="988" y="125" font-size="13" font-weight="600" fill="#fff">搜索</text>

  <!-- Filters -->
  <rect x="296" y="152" width="72" height="30" rx="6" fill="#EBF0FF" stroke="#1A56DB" stroke-width="1"/>
  <text x="308" y="172" font-size="11" fill="#1A56DB">全部</text>
  <rect x="378" y="152" width="72" height="30" rx="6" fill="#F3F4F6"/>
  <text x="390" y="172" font-size="11" fill="#6B7280">后端</text>
  <rect x="460" y="152" width="72" height="30" rx="6" fill="#F3F4F6"/>
  <text x="472" y="172" font-size="11" fill="#6B7280">前端</text>
  <rect x="542" y="152" width="72" height="30" rx="6" fill="#F3F4F6"/>
  <text x="550" y="172" font-size="11" fill="#6B7280">算法</text>
  <rect x="624" y="152" width="72" height="30" rx="6" fill="#F3F4F6"/>
  <text x="636" y="172" font-size="11" fill="#6B7280">产品</text>

  <text x="960" y="172" font-size="11" fill="#9CA3AF">共 4 个匹配职位</text>

  <!-- Job Card 1 -->
  <rect x="296" y="198" width="864" height="130" rx="12" fill="#FFFFFF" stroke="#E5E7EB" stroke-width="1" filter="url(#shadow-sm)"/>
  <!-- Match badge -->
  <rect x="1040" y="208" width="100" height="28" rx="14" fill="#10B981"/>
  <text x="1056" y="227" font-size="11" font-weight="600" fill="#fff">匹配 92%</text>

  <text x="326" y="236" font-size="18" font-weight="700" fill="#141B2B">后端开发工程师</text>
  <text x="326" y="260" font-size="13" fill="#6B7280">腾讯科技（深圳）有限公司 · 技术部 · 深圳</text>
  <text x="326" y="286" font-size="16" font-weight="600" fill="#1A56DB">25-50K · 14薪</text>
  <text x="540" y="286" font-size="12" fill="#9CA3AF">3-5年 · 本科</text>

  <!-- Tags -->
  <rect x="326" y="298" width="48" height="22" rx="4" fill="#F0FDF4"/>
  <text x="334" y="313" font-size="10" fill="#16A34A">五险一金</text>
  <rect x="382" y="298" width="48" height="22" rx="4" fill="#F0FDF4"/>
  <text x="390" y="313" font-size="10" fill="#16A34A">弹性工作</text>
  <rect x="438" y="298" width="48" height="22" rx="4" fill="#F0FDF4"/>
  <text x="346" y="313" font-size="10" fill="#16A34A">扁平管理</text>

  <!-- Tech stack -->
  <rect x="620" y="298" width="36" height="22" rx="4" fill="#EBF0FF"/>
  <text x="628" y="313" font-size="10" fill="#1A56DB">Java</text>
  <rect x="664" y="298" width="56" height="22" rx="4" fill="#EBF0FF"/>
  <text x="672" y="313" font-size="10" fill="#1A56DB">Spring</text>
  <rect x="728" y="298" width="48" height="22" rx="4" fill="#EBF0FF"/>
  <text x="736" y="313" font-size="10" fill="#1A56DB">MySQL</text>
  <rect x="784" y="298" width="44" height="22" rx="4" fill="#EBF0FF"/>
  <text x="792" y="313" font-size="10" fill="#1A56DB">Redis</text>

  <!-- Job Card 2 -->
  <rect x="296" y="340" width="864" height="130" rx="12" fill="#FFFFFF" stroke="#E5E7EB" stroke-width="1" filter="url(#shadow-sm)"/>
  <rect x="1040" y="350" width="100" height="28" rx="14" fill="#F59E0B"/>
  <text x="1056" y="369" font-size="11" font-weight="600" fill="#fff">匹配 78%</text>

  <text x="326" y="378" font-size="18" font-weight="700" fill="#141B2B">Go 高级开发工程师</text>
  <text x="326" y="402" font-size="13" fill="#6B7280">字节跳动 · 基础架构 · 深圳</text>
  <text x="326" y="428" font-size="16" font-weight="600" fill="#1A56DB">30-55K</text>
  <text x="440" y="428" font-size="12" fill="#9CA3AF">3-5年 · 本科</text>

  <rect x="326" y="440" width="48" height="22" rx="4" fill="#FEF3C7"/>
  <text x="334" y="455" font-size="10" fill="#D9770B">大小周</text>
  <rect x="382" y="440" width="48" height="22" rx="4" fill="#F0FDF4"/>
  <text x="390" y="455" font-size="10" fill="#16A34A">扁平</text>
  <rect x="438" y="440" width="56" height="22" rx="4" fill="#F0FDF4"/>
  <text x="346" y="455" font-size="10" fill="#16A34A">弹性工作</text>

  <rect x="620" y="440" width="30" height="22" rx="4" fill="#EBF0FF"/>
  <text x="626" y="455" font-size="10" fill="#1A56DB">Go</text>
  <rect x="658" y="440" width="20" height="22" rx="4" fill="#EBF0FF"/>
  <text x="662" y="455" font-size="10" fill="#1A56DB">K8s</text>
  <rect x="686" y="440" width="48" height="22" rx="4" fill="#EBF0FF"/>
  <text x="694" y="455" font-size="10" fill="#1A56DB">Docker</text>

  <!-- Job Card 3 -->
  <rect x="296" y="482" width="864" height="130" rx="12" fill="#FFFFFF" stroke="#E5E7EB" stroke-width="1" filter="url(#shadow-sm)"/>
  <rect x="1040" y="492" width="100" height="28" rx="14" fill="#F59E0B"/>
  <text x="1056" y="511" font-size="11" font-weight="600" fill="#fff">匹配 72%</text>

  <text x="326" y="520" font-size="18" font-weight="700" fill="#141B2B">Java 工程师</text>
  <text x="326" y="544" font-size="13" fill="#6B7280">美团 · 交易平台 · 深圳</text>
  <text x="326" y="570" font-size="16" font-weight="600" fill="#1A56DB">24-42K</text>
  <text x="440" y="570" font-size="12" fill="#9CA3AF">1-3年 · 本科</text>

  <rect x="326" y="582" width="48" height="22" rx="4" fill="#F0FDF4"/>
  <text x="334" y="597" font-size="10" fill="#16A34A">双休</text>
  <rect x="382" y="582" width="56" height="22" rx="4" fill="#F0FDF4"/>
  <text x="390" y="597" font-size="10" fill="#16A34A">成长快</text>

  <rect x="620" y="582" width="40" height="22" rx="4" fill="#EBF0FF"/>
  <text x="626" y="597" font-size="10" fill="#1A56DB">Java</text>
  <rect x="668" y="582" width="52" height="22" rx="4" fill="#EBF0FF"/>
  <text x="676" y="597" font-size="10" fill="#1A56DB">Spring</text>
  <rect x="728" y="582" width="48" height="22" rx="4" fill="#EBF0FF"/>
  <text x="736" y="597" font-size="10" fill="#1A56DB">MySQL</text>

  <!-- Job Card 4 -->
  <rect x="296" y="624" width="864" height="130" rx="12" fill="#FFFFFF" stroke="#E5E7EB" stroke-width="1" filter="url(#shadow-sm)"/>
  <rect x="1040" y="634" width="100" height="28" rx="14" fill="#9CA3AF"/>
  <text x="1056" y="653" font-size="11" font-weight="600" fill="#fff">匹配 65%</text>

  <text x="326" y="662" font-size="18" font-weight="700" fill="#141B2B">金融科技后端</text>
  <text x="326" y="686" font-size="13" fill="#6B7280">招商银行 · 金融云 · 深圳</text>
  <text x="326" y="712" font-size="16" font-weight="600" fill="#1A56DB">22-38K</text>
  <text x="440" y="712" font-size="12" fill="#9CA3AF">1-3年 · 本科</text>

  <rect x="326" y="724" width="48" height="22" rx="4" fill="#F0FDF4"/>
  <text x="334" y="739" font-size="10" fill="#16A34A">稳定</text>
  <rect x="382" y="724" width="48" height="22" rx="4" fill="#F0FDF4"/>
  <text x="390" y="739" font-size="10" fill="#16A34A">双休</text>
  <rect x="438" y="724" width="64" height="22" rx="4" fill="#F0FDF4"/>
  <text x="346" y="739" font-size="10" fill="#16A34A">高公积金</text>

  <!-- User avatar -->
  <circle cx="1140" cy="58" r="16" fill="#E0E7FF"/>
  <text x="1132" y="63" font-size="12" fill="#1A56DB" font-weight="600">李</text>
</svg>
