<svg xmlns="http://www.w3.org/2000/svg" viewBox="0 0 1200 800" font-family="Inter,'Segoe UI','Microsoft YaHei',sans-serif">
  <defs>
    <linearGradient id="bg" x1="0" y1="0" x2="0" y2="1"><stop offset="0%" stop-color="#F0F4FF"/><stop offset="100%" stop-color="#E8EDFB"/></linearGradient>
    <linearGradient id="primary" x1="0" y1="0" x2="1" y2="1"><stop offset="0%" stop-color="#1A56DB"/><stop offset="100%" stop-color="#7C3AED"/></linearGradient>
    <filter id="shadow"><feDropShadow dx="0" dy="2" stdDeviation="6" flood-opacity="0.08"/></filter>
    <filter id="shadow-sm"><feDropShadow dx="0" dy="1" stdDeviation="3" flood-opacity="0.06"/></filter>
  </defs>

  <rect width="1200" height="800" fill="url(#bg)"/>

  <!-- Sidebar -->
  <rect x="0" y="0" width="240" height="800" fill="#FFFFFF" filter="url(#shadow)"/>
  <rect x="20" y="24" width="40" height="40" rx="10" fill="url(#primary)"/>
  <path d="M30 52 L36 52 L36 44 L42 44 L42 36 L48 36" stroke="#fff" stroke-width="3" stroke-linecap="round" fill="none" opacity="0.9"/>
  <circle cx="49" cy="31" r="3.5" fill="#fff"/>
  <text x="70" y="48" font-size="18" font-weight="700" fill="#141B2B">跃途</text>

  <text x="56" y="128" font-size="13" fill="#6B7280">🏠 工作台</text>
  <rect x="16" y="144" width="208" height="44" rx="10" fill="#EBF0FF"/>
  <rect x="28" y="158" width="18" height="18" rx="4" fill="#1A56DB"/>
  <text x="56" y="172" font-size="14" font-weight="600" fill="#1A56DB">📄 简历中心</text>
  <text x="56" y="206" font-size="13" fill="#6B7280">🎙️ 模拟面试</text>
  <text x="56" y="240" font-size="13" fill="#6B7280">💼 职位匹配</text>
  <text x="56" y="274" font-size="13" fill="#6B7280">📅 求职规划</text>
  <text x="56" y="308" font-size="13" fill="#6B7280">🏢 公司画像</text>
  <text x="56" y="342" font-size="13" fill="#6B7280">📚 求职准备</text>
  <text x="56" y="376" font-size="13" fill="#6B7280">🏠 租房选址</text>

  <!-- Main Content -->
  <rect x="260" y="20" width="920" height="760" rx="16" fill="#FFFFFF" filter="url(#shadow)"/>

  <!-- Header -->
  <text x="296" y="64" font-size="22" font-weight="700" fill="#141B2B">简历中心</text>
  <text x="296" y="86" font-size="13" fill="#9CA3AF">管理你的简历，AI 帮你优化到最佳状态</text>

  <!-- Action Buttons -->
  <rect x="940" y="42" width="110" height="36" rx="8" fill="url(#primary)"/>
  <text x="965" y="65" font-size="13" font-weight="600" fill="#FFFFFF">+ 创建简历</text>
  <rect x="1062" y="42" width="96" height="36" rx="8" fill="#F3F4F6" stroke="#E5E7EB"/>
  <text x="1078" y="65" font-size="13" fill="#6B7280">📥 导入</text>

  <!-- Resume Card 1 - Active/Default -->
  <rect x="296" y="110" width="420" height="310" rx="14" fill="#FFFFFF" stroke="#1A56DB" stroke-width="2" filter="url(#shadow)"/>
  <!-- Default badge -->
  <rect x="600" y="120" width="100" height="24" rx="12" fill="#1A56DB"/>
  <text x="625" y="137" font-size="10" font-weight="600" fill="#FFFFFF">默认简历</text>

  <text x="326" y="158" font-size="18" font-weight="700" fill="#141B2B">后端开发-主简历</text>
  <text x="326" y="180" font-size="12" fill="#9CA3AF">模板: 互联网现代 · 更新于 2026-06-25</text>

  <!-- Score Ring -->
  <g transform="translate(380,280)">
    <circle r="48" fill="none" stroke="#E5E7EB" stroke-width="8"/>
    <circle r="48" fill="none" stroke="#1A56DB" stroke-width="8" stroke-dasharray="256 302" stroke-linecap="round" transform="rotate(-90)"/>
    <text x="0" y="6" text-anchor="middle" font-size="28" font-weight="700" fill="#1A56DB">85</text>
    <text x="0" y="22" text-anchor="middle" font-size="10" fill="#9CA3AF">总分</text>
  </g>

  <!-- Score Dimensions -->
  <g transform="translate(460,220)">
    <text x="0" y="12" font-size="11" fill="#6B7280">内容完整</text>
    <rect x="80" y="4" width="100" height="6" rx="3" fill="#E5E7EB"/>
    <rect x="80" y="4" width="85" height="6" rx="3" fill="#10B981"/>
    <text x="188" y="12" font-size="10" fill="#10B981">85%</text>

    <text x="0" y="36" font-size="11" fill="#6B7280">关键词匹配</text>
    <rect x="80" y="28" width="100" height="6" rx="3" fill="#E5E7EB"/>
    <rect x="80" y="28" width="80" height="6" rx="3" fill="#1A56DB"/>
    <text x="188" y="36" font-size="10" fill="#1A56DB">80%</text>

    <text x="0" y="60" font-size="11" fill="#6B7280">格式规范</text>
    <rect x="80" y="52" width="100" height="6" rx="3" fill="#E5E7EB"/>
    <rect x="80" y="52" width="92" height="6" rx="3" fill="#10B981"/>
    <text x="188" y="60" font-size="10" fill="#10B981">92%</text>

    <text x="0" y="84" font-size="11" fill="#6B7280">竞争力</text>
    <rect x="80" y="76" width="100" height="6" rx="3" fill="#E5E7EB"/>
    <rect x="80" y="76" width="78" height="6" rx="3" fill="#F59E0B"/>
    <text x="188" y="84" font-size="10" fill="#F59E0B">78%</text>

    <text x="0" y="108" font-size="11" fill="#6B7280">AIGC 检测</text>
    <rect x="80" y="100" width="100" height="6" rx="3" fill="#E5E7EB"/>
    <rect x="80" y="100" width="96" height="6" rx="3" fill="#10B981"/>
    <text x="188" y="108" font-size="10" fill="#10B981">96%</text>
  </g>

  <!-- Action buttons on card -->
  <rect x="326" y="380" width="80" height="30" rx="6" fill="#EBF0FF"/>
  <text x="343" y="400" font-size="11" font-weight="500" fill="#1A56DB">✏️ 编辑</text>
  <rect x="416" y="380" width="80" height="30" rx="6" fill="#F0FDF4"/>
  <text x="429" y="400" font-size="11" font-weight="500" fill="#16A34A">✨ AI 润色</text>
  <rect x="506" y="380" width="80" height="30" rx="6" fill="#FEF3C7"/>
  <text x="524" y="400" font-size="11" font-weight="500" fill="#D9770B">📊 评分</text>
  <rect x="596" y="380" width="100" height="30" rx="6" fill="#F3F4F6"/>
  <text x="610" y="400" font-size="11" font-weight="500" fill="#6B7280">🎯 定向优化</text>

  <!-- Resume Card 2 -->
  <rect x="740" y="110" width="420" height="310" rx="14" fill="#FFFFFF" stroke="#E5E7EB" stroke-width="1" filter="url(#shadow-sm)"/>
  <text x="770" y="158" font-size="18" font-weight="700" fill="#141B2B">腾讯-后端定制版</text>
  <text x="770" y="180" font-size="12" fill="#9CA3AF">模板: 互联网现代 · 更新于 2026-06-20</text>

  <g transform="translate(830,280)">
    <circle r="48" fill="none" stroke="#E5E7EB" stroke-width="8"/>
    <circle r="48" fill="none" stroke="#10B981" stroke-width="8" stroke-dasharray="264 302" stroke-linecap="round" transform="rotate(-90)"/>
    <text x="0" y="6" text-anchor="middle" font-size="28" font-weight="700" fill="#10B981">88</text>
    <text x="0" y="22" text-anchor="middle" font-size="10" fill="#9CA3AF">总分</text>
  </g>

  <g transform="translate(910,220)">
    <text x="0" y="12" font-size="11" fill="#6B7280">内容完整</text>
    <rect x="80" y="4" width="100" height="6" rx="3" fill="#E5E7EB"/>
    <rect x="80" y="4" width="90" height="6" rx="3" fill="#10B981"/>
    <text x="188" y="12" font-size="10" fill="#10B981">90%</text>

    <text x="0" y="36" font-size="11" fill="#6B7280">关键词匹配</text>
    <rect x="80" y="28" width="100" height="6" rx="3" fill="#E5E7EB"/>
    <rect x="80" y="28" width="92" height="6" rx="3" fill="#1A56DB"/>
    <text x="188" y="36" font-size="10" fill="#1A56DB">92%</text>

    <text x="0" y="60" font-size="11" fill="#6B7280">格式规范</text>
    <rect x="80" y="52" width="100" height="6" rx="3" fill="#E5E7EB"/>
    <rect x="80" y="52" width="88" height="6" rx="3" fill="#10B981"/>
    <text x="188" y="60" font-size="10" fill="#10B981">88%</text>

    <text x="0" y="84" font-size="11" fill="#6B7280">竞争力</text>
    <rect x="80" y="76" width="100" height="6" rx="3" fill="#E5E7EB"/>
    <rect x="80" y="76" width="82" height="6" rx="3" fill="#10B981"/>
    <text x="188" y="84" font-size="10" fill="#10B981">82%</text>
  </g>

  <rect x="770" y="380" width="80" height="30" rx="6" fill="#EBF0FF"/>
  <text x="787" y="400" font-size="11" font-weight="500" fill="#1A56DB">✏️ 编辑</text>
  <rect x="860" y="380" width="80" height="30" rx="6" fill="#F0FDF4"/>
  <text x="873" y="400" font-size="11" font-weight="500" fill="#16A34A">✨ AI 润色</text>
  <rect x="950" y="380" width="80" height="30" rx="6" fill="#FEF3C7"/>
  <text x="968" y="400" font-size="11" font-weight="500" fill="#D9770B">📊 评分</text>

  <!-- AI Tips Section -->
  <rect x="296" y="445" width="864" height="320" rx="14" fill="#F9FAFB" stroke="#E5E7EB" stroke-width="1"/>
  <text x="326" y="480" font-size="16" font-weight="600" fill="#141B2B">🤖 AI 优化建议</text>
  <text x="326" y="502" font-size="12" fill="#9CA3AF">基于你的简历内容，AI 给出以下改进建议（按优先级排序）</text>

  <!-- Suggestion 1 -->
  <rect x="326" y="520" width="804" height="56" rx="8" fill="#FFFFFF" stroke="#FEE2E2" stroke-width="1"/>
  <rect x="336" y="532" width="32" height="32" rx="8" fill="#FEF2F2"/>
  <text x="344" y="553" font-size="16">🔴</text>
  <text x="378" y="545" font-size="13" font-weight="600" fill="#141B2B">项目描述缺少量化数据</text>
  <text x="378" y="563" font-size="11" fill="#6B7280">建议：将"提升了系统性能"改为"QPS 从 2000 提升至 8000，响应时间降低 60%"</text>
  <rect x="1030" y="532" width="80" height="28" rx="6" fill="#1A56DB"/>
  <text x="1048" y="551" font-size="10" fill="#fff">采纳优化</text>

  <!-- Suggestion 2 -->
  <rect x="326" y="584" width="804" height="56" rx="8" fill="#FFFFFF" stroke="#FEF3C7" stroke-width="1"/>
  <rect x="336" y="596" width="32" height="32" rx="8" fill="#FFFBEB"/>
  <text x="344" y="617" font-size="16">🟡</text>
  <text x="378" y="609" font-size="13" font-weight="600" fill="#141B2B">技能标签可以更精准</text>
  <text x="378" y="627" font-size="11" fill="#6B7280">建议：补充"Docker Compose"、"Jenkins"、"Prometheus"等热门 DevOps 关键词</text>
  <rect x="1030" y="596" width="80" height="28" rx="6" fill="#F3F4F6" stroke="#E5E7EB"/>
  <text x="1048" y="615" font-size="10" fill="#6B7280">采纳优化</text>

  <!-- Suggestion 3 -->
  <rect x="326" y="648" width="804" height="56" rx="8" fill="#FFFFFF" stroke="#D1FAE5" stroke-width="1"/>
  <rect x="336" y="660" width="32" height="32" rx="8" fill="#ECFDF5"/>
  <text x="344" y="681" font-size="16">🟢</text>
  <text x="378" y="673" font-size="13" font-weight="600" fill="#141B2B">自我评价写得不错</text>
  <text x="378" y="691" font-size="11" fill="#6B7280">STAR 结构完整，建议再补充一个具体项目成果佐证</text>
  <rect x="1030" y="660" width="80" height="28" rx="6" fill="#F0FDF4" stroke="#D1FAE5"/>
  <text x="1048" y="679" font-size="10" fill="#16A34A">已达标 ✓</text>

  <!-- User avatar -->
  <circle cx="1140" cy="58" r="16" fill="#E0E7FF"/>
  <text x="1132" y="63" font-size="12" fill="#1A56DB" font-weight="600">李</text>
</svg>
